<?xml version="1.0" encoding="UTF-8" standalone="no"?>
<!-- Created with Inkscape (http://www.inkscape.org/) -->

<svg
   width="221.56328mm"
   height="55.373081mm"
   viewBox="0 0 837.40453 209.28409"
   version="1.1"
   id="svg1"
   xml:space="preserve"
   inkscape:version="1.4 (e7c3feb100, 2024-10-09)"
   sodipodi:docname="polytrakt_logo.svg"
   inkscape:export-filename="polytrakt_logo.png"
   inkscape:export-xdpi="183.42389"
   inkscape:export-ydpi="183.42389"
   xmlns:inkscape="http://www.inkscape.org/namespaces/inkscape"
   xmlns:sodipodi="http://sodipodi.sourceforge.net/DTD/sodipodi-0.dtd"
   xmlns="http://www.w3.org/2000/svg"
   xmlns:svg="http://www.w3.org/2000/svg"><sodipodi:namedview
     id="namedview1"
     pagecolor="#ffffff"
     bordercolor="#000000"
     borderopacity="0.25"
     inkscape:showpageshadow="2"
     inkscape:pageopacity="0.0"
     inkscape:pagecheckerboard="true"
     inkscape:deskcolor="#d1d1d1"
     inkscape:document-units="mm"
     inkscape:zoom="0.74300928"
     inkscape:cx="350.60127"
     inkscape:cy="18.842295"
     inkscape:window-width="1920"
     inkscape:window-height="1015"
     inkscape:window-x="0"
     inkscape:window-y="0"
     inkscape:window-maximized="1"
     inkscape:current-layer="layer2" /><defs
     id="defs1"><rect
       x="110.36201"
       y="64.602158"
       width="981.1452"
       height="609.6828"
       id="rect1" /></defs><g
     inkscape:groupmode="layer"
     id="layer2"
     inkscape:label="Layer 2"
     transform="translate(-147.31653,-268.50272)"><path
       id="rect2"
       style="fill:#80b3ff;stroke-width:1.06234"
       d="M 515.00989 268.50272 L 515.00989 477.78592 L 984.72083 477.78592 L 984.72083 268.50272 L 515.00989 268.50272 z M 532.50598 306.97733 L 563.43176 306.97733 L 563.43176 337.90311 L 594.35754 337.90311 L 594.35754 368.82889 L 563.43176 368.82889 L 563.43176 399.75467 L 594.35754 399.75467 L 594.35754 430.68045 L 563.43176 430.68045 L 532.50598 399.75467 L 532.50598 306.97733 z M 795.43176 306.97733 L 826.35754 306.97733 L 826.35754 368.82889 L 857.28333 368.82889 L 857.28333 337.90311 L 888.20911 337.90311 L 888.20911 368.82889 L 857.28333 368.82889 L 888.20911 399.75467 L 888.20911 430.68045 L 857.28333 430.68045 L 857.28333 399.75467 L 826.35754 399.75467 L 826.35754 430.68045 L 795.43176 430.68045 L 795.43176 306.97733 z M 903.69153 306.97733 L 934.61731 306.97733 L 934.61731 337.90311 L 965.54309 337.90311 L 965.54309 368.82889 L 934.61731 368.82889 L 934.61731 399.75467 L 965.54309 399.75467 L 965.54309 430.68045 L 934.61731 430.68045 L 903.69153 399.75467 L 903.69153 306.97733 z M 609.83997 337.90311 L 671.69153 337.90311 L 671.69153 368.82889 L 640.76575 368.82889 L 640.76575 430.68045 L 609.83997 430.68045 L 609.83997 337.90311 z M 687.17395 337.90311 L 779.95129 337.90311 L 779.95129 430.68045 L 749.02551 430.68045 L 749.02551 399.75467 L 718.09973 430.68045 L 687.17395 430.68045 L 687.17395 337.90311 z M 749.02551 399.75467 L 749.02551 368.82889 L 718.09973 368.82889 L 718.09973 399.75467 L 749.02551 399.75467 z " /></g><g
     inkscape:label="Layer 1"
     inkscape:groupmode="layer"
     id="layer1"
     transform="translate(-147.31653,-268.50272)"><path
       style="font-size:96px;font-family:evermore;-inkscape-font-specification:evermore;white-space:pre;fill:#80b3ff"
       d="m 164.36133,124.60156 q 9.9375,0 16.96875,-7.03125 7.03125,-7.03125 7.03125,-16.96875 0,-9.937498 -7.03125,-16.968748 -7.03125,-7.03125 -16.96875,-7.03125 -9.9375,0 -16.96875,7.03125 -7.03125,7.03125 -7.03125,16.968748 0,9.9375 7.03125,16.96875 7.03125,7.03125 16.96875,7.03125 z m -48,-24 q 0,-9.562498 3.65625,-18.374998 3.65625,-8.8125 10.40625,-15.5625 6.75,-6.75 15.5625,-10.40625 8.8125,-3.65625 18.375,-3.65625 9.5625,0 18.375,3.65625 8.8125,3.65625 15.5625,10.40625 6.75,6.75 10.40625,15.5625 3.65625,8.8125 3.65625,18.374998 0,9.5625 -3.65625,18.375 -3.65625,8.8125 -10.40625,15.5625 -6.75,6.75 -15.5625,10.40625 -8.8125,3.65625 -18.375,3.65625 -9.5625,0 -18.375,-3.65625 -2.90625,-1.21875 -5.625,-2.8125 v 30.46875 h -24 z m 152.15625,48 q -9.5625,0 -18.375,-3.65625 -8.8125,-3.65625 -15.5625,-10.40625 -6.75,-6.75 -10.40625,-15.5625 -3.65625,-8.8125 -3.65625,-18.375 0,-9.562498 3.65625,-18.374998 3.65625,-8.8125 10.40625,-15.5625 6.75,-6.75 15.5625,-10.40625 8.8125,-3.65625 18.375,-3.65625 9.5625,0 18.375,3.65625 8.8125,3.65625 15.5625,10.40625 6.75,6.75 10.40625,15.5625 3.65625,8.8125 3.65625,18.374998 0,9.5625 -3.65625,18.375 -3.65625,8.8125 -10.40625,15.5625 -6.75,6.75 -15.5625,10.40625 -8.8125,3.65625 -18.375,3.65625 z m 0,-24 q 9.9375,0 16.96875,-7.03125 7.03125,-7.03125 7.03125,-16.96875 0,-9.937498 -7.03125,-16.968748 -7.03125,-7.03125 -16.96875,-7.03125 -9.9375,0 -16.96875,7.03125 -7.03125,7.03125 -7.03125,16.968748 0,9.9375 7.03125,16.96875 7.03125,7.03125 16.96875,7.03125 z m 57.28125,-24 V 28.601562 h 24 v 71.999998 q 0,9.9375 7.03125,16.96875 7.03125,7.03125 16.96875,7.03125 v 24 q -9.5625,0 -18.375,-3.65625 -8.8125,-3.65625 -15.5625,-10.40625 -6.75,-6.75 -10.40625,-15.5625 -3.65625,-8.8125 -3.65625,-18.375 z m 46.96875,0 V 52.601562 h 24 v 47.999998 q 0,9.9375 7.03125,16.96875 7.03125,7.03125 16.96875,7.03125 9.9375,0 16.96875,-7.03125 7.03125,-7.03125 7.03125,-16.96875 V 52.601562 h 24 v 95.999998 q 0,9.5625 -3.65625,18.375 -3.65625,8.8125 -10.40625,15.5625 -6.75,6.75 -15.5625,10.40625 -8.8125,3.65625 -18.375,3.65625 v -24 q 9.9375,0 16.96875,-7.03125 7.03125,-7.03125 7.03125,-16.96875 v -6.46875 q -2.71875,1.59375 -5.625,2.8125 -8.8125,3.65625 -18.375,3.65625 -9.5625,0 -18.375,-3.65625 -8.8125,-3.65625 -15.5625,-10.40625 -6.75,-6.75 -10.40625,-15.5625 -3.65625,-8.8125 -3.65625,-18.375 z"
       id="text1"
       transform="translate(30.955202,280.61562)"
       aria-label="poly" /></g></svg>
